<?xml version="1.0" encoding="UTF-8" standalone="no"?>
<!DOCTYPE svg PUBLIC "-//W3C//DTD SVG 1.1//EN" "http://www.w3.org/Graphics/SVG/1.1/DTD/svg11.dtd">
<svg xmlns="http://www.w3.org/2000/svg" version="1.1" viewBox="0.00 0.00 427.00 83.00">
<g stroke-width="2.00" fill="none" stroke-linecap="butt">
<path stroke="#8f17ca" stroke-opacity="0.996" vector-effect="non-scaling-stroke" d="
  M 43.78 39.87
  Q 43.07 41.58 42.01 42.79"
/>
<path stroke="#3b0b5d" vector-effect="non-scaling-stroke" d="
  M 74.19 51.26
  Q 73.89 50.83 73.36 51.38
  Q 73.07 51.70 73.47 51.96"
/>
<path stroke="#3b0b5d" vector-effect="non-scaling-stroke" d="
  M 73.25 52.12
  Q 71.19 52.26 71.65 53.74"
/>
<path stroke="#3b0b5d" vector-effect="non-scaling-stroke" d="
  M 68.12 57.05
  Q 64.83 59.34 62.48 62.74"
/>
<path stroke="#3b0b5d" vector-effect="non-scaling-stroke" d="
  M 62.48 62.74
  Q 60.29 64.19 58.70 66.55"
/>
<path stroke="#3b0b5d" vector-effect="non-scaling-stroke" d="
  M 58.21 67.23
  Q 57.98 67.00 57.72 67.21
  Q 57.33 67.54 57.58 67.83"
/>
</g>
<path fill="#a718d9" fill-opacity="0.996" d="
  M 43.78 39.87
  Q 43.07 41.58 42.01 42.79
  Q 40.22 40.91 38.64 39.85
  C 35.50 37.77 30.98 39.05 29.10 42.15
  Q 28.08 43.82 28.21 47.53
  Q 28.30 50.47 28.34 62.50
  A 0.28 0.28 0.0 0 1 27.86 62.70
  Q 22.64 57.39 18.13 53.11
  C 12.72 47.96 10.65 44.26 12.95 37.69
  Q 13.66 35.69 17.98 31.61
  Q 19.12 30.53 34.86 14.33
  C 39.65 9.39 44.05 6.65 50.33 9.71
  C 52.40 10.72 54.06 12.70 56.19 14.71
  A 1.49 1.47 21.7 0 1 56.66 15.79
  C 56.69 28.66 57.08 42.29 56.35 43.19
  A 1.47 1.39 42.3 0 1 54.24 43.23
  Q 49.52 38.58 46.59 35.76
  A 2.07 2.07 0.0 0 0 43.94 35.58
  Q 41.49 37.36 43.78 39.87
  Z"
/>
<circle fill="white" cx="229.29" cy="22.93" r="4.34"/>
<path fill="white" d="
  M 343.98 54.31
  Q 343.69 54.47 342.95 55.18
  Q 342.12 55.97 342.07 55.99
  Q 333.42 59.59 327.17 54.05
  C 322.98 50.35 321.97 43.32 324.13 38.14
  Q 327.53 29.99 337.47 30.47
  C 339.77 30.58 342.37 31.54 343.98 33.27
  A 0.22 0.22 0.0 0 0 344.37 33.12
  L 344.37 21.45
  A 0.79 0.79 0.0 0 1 345.16 20.66
  L 350.70 20.66
  A 0.63 0.63 0.0 0 1 351.33 21.29
  L 351.33 56.42
  A 0.68 0.67 90.0 0 1 350.66 57.10
  L 345.09 57.10
  A 0.63 0.63 0.0 0 1 344.46 56.47
  L 344.46 54.59
  A 0.33 0.32 -14.4 0 0 343.98 54.31
  Z
  M 337.2600 36.2400
  A 7.68 7.12 -90.0 0 0 330.1400 43.9200
  A 7.68 7.12 -90.0 0 0 337.2600 51.6000
  A 7.68 7.12 -90.0 0 0 344.3800 43.9200
  A 7.68 7.12 -90.0 0 0 337.2600 36.2400
  Z"
/>
<path fill="#7616bb" fill-opacity="0.996" d="
  M 74.19 51.26
  Q 73.89 50.83 73.36 51.38
  Q 73.07 51.70 73.47 51.96
  Q 73.33 52.13 73.25 52.12
  Q 71.19 52.26 71.65 53.74
  L 68.12 57.05
  Q 64.83 59.34 62.48 62.74
  Q 60.29 64.19 58.70 66.55
  Q 58.62 66.86 58.21 67.23
  Q 57.98 67.00 57.72 67.21
  Q 57.33 67.54 57.58 67.83
  C 52.18 73.64 46.83 78.47 38.63 73.17
  A 0.63 0.57 81.4 0 1 38.47 73.04
  L 33.91 68.48
  A 2.46 2.45 22.8 0 1 33.19 66.72
  Q 33.34 51.21 33.20 46.51
  Q 33.15 44.72 33.85 43.86
  A 1.28 1.28 0.0 0 1 35.74 43.76
  L 43.74 51.68
  A 2.28 2.27 43.9 0 0 47.01 51.62
  L 47.09 51.54
  A 2.47 2.41 -44.3 0 0 47.17 48.10
  L 42.01 42.79
  Q 43.07 41.58 43.78 39.87
  Q 46.83 42.77 49.83 45.67
  C 52.60 48.36 55.73 49.40 58.92 47.07
  Q 61.69 45.03 61.69 41.02
  Q 61.67 31.65 61.61 21.05
  A 0.36 0.36 0.0 0 1 62.23 20.79
  Q 67.95 26.60 73.50 31.91
  C 79.69 37.84 81.01 44.80 74.19 51.26
  Z"
/>
<path fill="white" d="
  M 135.0106 38.9432
  A 19.00 18.20 -1.8 0 1 116.5917 57.7310
  A 19.00 18.20 -1.8 0 1 97.0294 40.1368
  A 19.00 18.20 -1.8 0 1 115.4483 21.3490
  A 19.00 18.20 -1.8 0 1 135.0106 38.9432
  Z
  M 114.3728 27.7209
  A 11.99 11.68 -97.8 0 0 104.4281 41.1852
  A 11.99 11.68 -97.8 0 0 117.6272 51.4791
  A 11.99 11.68 -97.8 0 0 127.5719 38.0148
  A 11.99 11.68 -97.8 0 0 114.3728 27.7209
  Z"
/>
<path fill="white" d="
  M 254.96 51.15
  L 256.45 55.67
  A 0.36 0.36 0.0 0 1 256.24 56.11
  C 250.61 58.39 242.27 57.70 241.88 50.20
  Q 241.49 42.72 241.72 37.62
  A 0.79 0.78 -81.4 0 0 241.14 36.82
  Q 240.30 36.58 238.91 36.84
  A 1.14 1.13 84.7 0 1 237.57 35.72
  L 237.57 32.06
  A 0.79 0.79 0.0 0 1 238.23 31.28
  Q 239.50 31.06 240.50 31.29
  A 0.78 0.77 6.6 0 0 241.45 30.54
  L 241.45 25.57
  A 0.78 0.77 -90.0 0 1 242.22 24.79
  L 247.96 24.79
  A 0.64 0.64 0.0 0 1 248.60 25.43
  L 248.60 30.72
  A 0.58 0.58 0.0 0 0 249.18 31.30
  L 253.85 31.30
  A 0.85 0.85 0.0 0 1 254.70 32.15
  L 254.70 35.88
  A 0.84 0.83 -90.0 0 1 253.87 36.72
  L 249.05 36.72
  A 0.49 0.49 0.0 0 0 248.56 37.21
  Q 248.59 44.56 248.54 47.21
  C 248.46 51.91 250.98 52.22 254.67 51.01
  A 0.22 0.22 0.0 0 1 254.96 51.15
  Z"
/>
<path fill="white" d="
  M 178.05 56.71
  Q 178.04 44.01 178.05 43.52
  C 178.34 33.86 166.49 34.57 166.41 43.50
  Q 166.35 50.34 166.36 56.58
  A 0.54 0.54 0.0 0 1 165.82 57.12
  L 159.89 57.12
  A 0.51 0.51 0.0 0 1 159.38 56.61
  Q 159.32 43.81 159.30 42.75
  C 159.09 34.08 148.03 34.84 147.74 43.01
  Q 147.57 47.78 147.66 56.70
  A 0.42 0.41 90.0 0 1 147.25 57.12
  L 141.19 57.12
  A 0.44 0.43 0.0 0 1 140.75 56.69
  L 140.75 31.71
  A 0.84 0.83 0.0 0 1 141.59 30.88
  L 146.97 30.88
  A 0.66 0.66 0.0 0 1 147.61 31.69
  Q 147.43 32.49 147.67 33.10
  A 0.35 0.34 -37.1 0 0 148.27 33.18
  Q 149.16 31.96 151.03 31.33
  Q 159.05 28.63 164.55 34.02
  A 0.59 0.59 0.0 0 0 165.36 34.03
  Q 171.82 28.15 179.84 31.92
  Q 184.16 33.95 184.83 39.85
  Q 185.33 44.18 185.02 56.71
  A 0.40 0.40 0.0 0 1 184.62 57.10
  L 178.44 57.10
  A 0.39 0.39 0.0 0 1 178.05 56.71
  Z"
/>
<path fill="white" d="
  M 199.13 56.56
  A 0.53 0.53 0.0 0 1 198.60 57.09
  L 192.64 57.09
  A 0.52 0.52 0.0 0 1 192.12 56.57
  L 192.12 31.56
  A 0.67 0.67 0.0 0 1 192.79 30.89
  L 198.34 30.89
  A 0.58 0.58 0.0 0 1 198.92 31.47
  L 198.92 32.72
  A 0.37 0.37 0.0 0 0 199.50 33.03
  Q 206.51 28.51 213.19 31.92
  Q 218.02 34.39 218.30 40.58
  Q 218.68 48.66 218.33 56.69
  A 0.41 0.41 0.0 0 1 217.92 57.08
  L 211.79 57.08
  A 0.45 0.44 0.0 0 1 211.34 56.64
  Q 211.30 50.36 211.32 43.50
  C 211.34 33.95 199.22 34.72 199.17 43.26
  Q 199.12 51.07 199.13 56.56
  Z"
/>
<path fill="white" d="
  M 266.26 46.63
  C 267.77 52.66 275.71 52.63 279.80 49.81
  A 0.91 0.89 49.6 0 1 280.95 49.91
  L 283.75 52.72
  A 0.74 0.74 0.0 0 1 283.73 53.78
  Q 280.95 56.38 277.31 57.05
  C 269.69 58.45 261.98 55.78 259.57 47.97
  Q 258.38 44.12 259.59 39.99
  C 262.00 31.77 270.94 28.76 278.42 31.58
  Q 286.32 34.57 286.33 45.02
  A 0.94 0.93 -90.0 0 1 285.40 45.96
  L 266.78 45.96
  A 0.54 0.54 0.0 0 0 266.26 46.63
  Z
  M 266.38 41.69
  L 279.37 41.71
  A 0.15 0.15 0.0 0 0 279.53 41.56
  L 279.53 41.46
  A 6.56 5.49 0.1 0 0 272.98 35.96
  L 272.80 35.96
  A 6.56 5.49 0.1 0 0 266.23 41.44
  L 266.23 41.54
  A 0.15 0.15 0.0 0 0 266.38 41.69
  Z"
/>
<path fill="white" d="
  M 298.51 56.58
  A 0.53 0.53 0.0 0 1 297.98 57.12
  L 292.01 57.11
  A 0.52 0.52 0.0 0 1 291.48 56.59
  L 291.50 31.52
  A 0.67 0.67 0.0 0 1 292.18 30.85
  L 297.74 30.85
  A 0.58 0.58 0.0 0 1 298.32 31.43
  L 298.32 32.69
  A 0.38 0.37 -16.7 0 0 298.90 33.00
  Q 305.93 28.47 312.62 31.89
  Q 317.47 34.37 317.74 40.58
  Q 318.12 48.68 317.76 56.73
  A 0.41 0.41 0.0 0 1 317.35 57.12
  L 311.20 57.11
  A 0.45 0.44 0.0 0 1 310.75 56.67
  Q 310.72 50.38 310.74 43.50
  C 310.77 33.93 298.62 34.69 298.56 43.25
  Q 298.51 51.08 298.51 56.58
  Z"
/>
<path fill="white" d="
  M 364.46 45.96
  A 0.54 0.54 0.0 0 0 363.94 46.63
  C 365.47 52.68 373.44 52.62 377.53 49.78
  A 0.91 0.90 49.4 0 1 378.68 49.88
  L 381.50 52.69
  A 0.74 0.74 0.0 0 1 381.48 53.75
  Q 378.70 56.37 375.05 57.05
  C 367.41 58.48 359.67 55.82 357.23 48.00
  Q 356.02 44.14 357.23 39.99
  C 359.62 31.74 368.58 28.69 376.09 31.50
  Q 384.02 34.47 384.07 44.96
  A 0.94 0.93 89.8 0 1 383.14 45.90
  L 364.46 45.96
  Z
  M 364.10 41.71
  L 376.92 41.67
  A 0.14 0.14 0.0 0 0 377.06 41.53
  L 377.06 41.44
  A 6.42 5.53 -0.2 0 0 370.62 35.93
  L 370.36 35.93
  A 6.42 5.53 -0.2 0 0 363.96 41.48
  L 363.96 41.57
  A 0.14 0.14 0.0 0 0 364.10 41.71
  Z"
/>
<path fill="white" d="
  M 396.71 33.68
  Q 399.89 30.55 404.20 30.67
  A 0.49 0.48 -89.4 0 1 404.67 31.16
  L 404.67 36.43
  A 0.51 0.51 0.0 0 1 404.19 36.94
  C 401.06 37.16 398.81 37.29 397.13 40.09
  Q 396.15 41.73 396.28 46.58
  Q 396.33 48.48 396.19 56.53
  A 0.58 0.58 0.0 0 1 395.61 57.10
  L 389.94 57.10
  A 0.54 0.54 0.0 0 1 389.40 56.56
  L 389.40 31.37
  A 0.49 0.49 0.0 0 1 389.89 30.88
  L 395.54 30.88
  A 0.53 0.52 -1.7 0 1 396.07 31.37
  Q 396.16 32.47 395.92 33.19
  A 0.48 0.48 0.0 0 0 396.71 33.68
  Z"
/>
<rect fill="white" x="225.82" y="31.02" width="6.98" height="26.06" rx="0.54"/>
<path fill="white" d="
  M 74.19 51.26
  Q 73.94 51.63 73.47 51.96
  Q 73.07 51.70 73.36 51.38
  Q 73.89 50.83 74.19 51.26
  Z"
/>
<path fill="white" d="
  M 73.25 52.12
  Q 72.58 53.12 71.65 53.74
  Q 71.19 52.26 73.25 52.12
  Z"
/>
<path fill="white" d="
  M 68.12 57.05
  L 62.48 62.74
  Q 64.83 59.34 68.12 57.05
  Z"
/>
<path fill="white" d="
  M 62.48 62.74
  Q 61.01 64.89 58.70 66.55
  Q 60.29 64.19 62.48 62.74
  Z"
/>
<path fill="white" d="
  M 58.21 67.23
  L 57.58 67.83
  Q 57.33 67.54 57.72 67.21
  Q 57.98 67.00 58.21 67.23
  Z"
/>
</svg>
